<svg width="30" height="30" viewBox="0 0 30 30" fill="none" xmlns="http://www.w3.org/2000/svg">
<path d="M11.9658 10.9554C11.1128 9.86977 9.54113 9.68117 8.45545 10.5342C7.36977 11.3872 7.18117 12.9589 8.0342 14.0446L11.9658 10.9554ZM15.5 19.5L13.5342 21.0446C14.0339 21.6805 14.8104 22.0355 15.6182 21.9972C16.4261 21.9589 17.1656 21.5322 17.6029 20.8519L15.5 19.5ZM27.2678 7.76777C28.2441 6.79146 28.2441 5.20854 27.2678 4.23223C26.2915 3.25592 24.7085 3.25592 23.7322 4.23223L27.2678 7.76777ZM20 12.5L17.9657 11.0469L17.9301 11.0967L17.8971 11.1481L20 12.5ZM22.5 9L20.7322 7.23223L20.5859 7.37854L20.4657 7.5469L22.5 9ZM8.0342 14.0446L13.5342 21.0446L17.4658 17.9554L11.9658 10.9554L8.0342 14.0446ZM17.6029 20.8519L22.1029 13.8519L17.8971 11.1481L13.3971 18.1481L17.6029 20.8519ZM22.0343 13.9531L24.5343 10.4531L20.4657 7.5469L17.9657 11.0469L22.0343 13.9531ZM24.2678 10.7678L27.2678 7.76777L23.7322 4.23223L20.7322 7.23223L24.2678 10.7678Z" fill="#FF811B"/>
<path d="M27 15C27 21.6274 21.6274 27 15 27C8.37258 27 3 21.6274 3 15C3 8.37258 8.37258 3 15 3" stroke="#FF811B" stroke-width="5" stroke-linecap="round"/>
</svg>
