<svg width="37" height="37" viewBox="0 0 37 37" fill="none" xmlns="http://www.w3.org/2000/svg">
<path d="M20.05 15.15H16.45C15.9726 15.15 15.5148 15.3396 15.1772 15.6772C14.8396 16.0148 14.65 16.4726 14.65 16.95C14.65 17.4274 14.8396 17.8852 15.1772 18.2228C15.5148 18.5604 15.9726 18.75 16.45 18.75H20.05C20.5274 18.75 20.9852 18.5604 21.3228 18.2228C21.6604 17.8852 21.85 17.4274 21.85 16.95C21.85 16.4726 21.6604 16.0148 21.3228 15.6772C20.9852 15.3396 20.5274 15.15 20.05 15.15ZM29.05 15.15C29.0448 13.5578 28.512 12.0122 27.535 10.755C26.5579 9.49788 25.1917 8.60004 23.65 8.202V6.15C23.65 4.71783 23.0811 3.34432 22.0684 2.33162C21.0557 1.31893 19.6822 0.75 18.25 0.75C16.8178 0.75 15.4443 1.31893 14.4316 2.33162C13.4189 3.34432 12.85 4.71783 12.85 6.15V8.202C11.3083 8.60004 9.94211 9.49788 8.96504 10.755C7.98797 12.0122 7.45517 13.5578 7.45 15.15C5.54044 15.15 3.70909 15.9086 2.35883 17.2588C1.00857 18.6091 0.25 20.4404 0.25 22.35V27.75C0.25 29.1822 0.818927 30.5557 1.83162 31.5684C2.84432 32.5811 4.21783 33.15 5.65 33.15H7.774C8.14536 34.2004 8.83253 35.1102 9.74128 35.7547C10.65 36.3992 11.7359 36.7469 12.85 36.75H23.65C24.7641 36.7469 25.85 36.3992 26.7587 35.7547C27.6675 35.1102 28.3546 34.2004 28.726 33.15H30.85C32.2822 33.15 33.6557 32.5811 34.6684 31.5684C35.6811 30.5557 36.25 29.1822 36.25 27.75V22.35C36.25 20.4404 35.4914 18.6091 34.1412 17.2588C32.7909 15.9086 30.9596 15.15 29.05 15.15ZM7.45 29.55H5.65C5.17261 29.55 4.71477 29.3604 4.37721 29.0228C4.03964 28.6852 3.85 28.2274 3.85 27.75V22.35C3.85 21.3952 4.22928 20.4795 4.90442 19.8044C5.57955 19.1293 6.49522 18.75 7.45 18.75V29.55ZM16.45 6.15C16.45 5.67261 16.6396 5.21477 16.9772 4.87721C17.3148 4.53964 17.7726 4.35 18.25 4.35C18.7274 4.35 19.1852 4.53964 19.5228 4.87721C19.8604 5.21477 20.05 5.67261 20.05 6.15V7.95H16.45V6.15ZM25.45 31.35C25.45 31.8274 25.2604 32.2852 24.9228 32.6228C24.5852 32.9604 24.1274 33.15 23.65 33.15H12.85C12.3726 33.15 11.9148 32.9604 11.5772 32.6228C11.2396 32.2852 11.05 31.8274 11.05 31.35V29.55C11.05 28.5952 11.4293 27.6795 12.1044 27.0044C12.7795 26.3293 13.6952 25.95 14.65 25.95H21.85C22.8048 25.95 23.7205 26.3293 24.3956 27.0044C25.0707 27.6795 25.45 28.5952 25.45 29.55V31.35ZM25.45 23.358C24.3628 22.7036 23.1189 22.3553 21.85 22.35H14.65C13.3811 22.3553 12.1372 22.7036 11.05 23.358V15.15C11.05 14.1952 11.4293 13.2795 12.1044 12.6044C12.7795 11.9293 13.6952 11.55 14.65 11.55H21.85C22.8048 11.55 23.7205 11.9293 24.3956 12.6044C25.0707 13.2795 25.45 14.1952 25.45 15.15V23.358ZM32.65 27.75C32.65 28.2274 32.4604 28.6852 32.1228 29.0228C31.7852 29.3604 31.3274 29.55 30.85 29.55H29.05V18.75C30.0048 18.75 30.9205 19.1293 31.5956 19.8044C32.2707 20.4795 32.65 21.3952 32.65 22.35V27.75Z" fill="#9CA3AF"/>
</svg>
