<svg width="58" height="57" viewBox="0 0 58 57" fill="none" xmlns="http://www.w3.org/2000/svg">
<path d="M44.6223 56.2554C39.4544 56.2509 34.3671 54.9737 29.8098 52.5367L28.4036 51.7554C18.6872 46.5314 10.7214 38.5656 5.49732 28.8492L4.71607 27.4429C2.21551 22.8597 0.894589 17.7264 0.872316 12.5054V10.4117C0.870996 8.74591 1.53469 7.14853 2.71607 5.97417L7.99732 0.692922C8.51021 0.17604 9.23421 -0.0730947 9.95656 0.0187299C10.6789 0.110554 11.3176 0.532906 11.6848 1.16167L18.7161 13.2242C19.4271 14.4519 19.2218 16.0047 18.2161 17.0054L12.3098 22.9117C11.8193 23.3968 11.705 24.1461 12.0286 24.7554L13.1223 26.8179C17.0506 34.0943 23.0263 40.0592 30.3098 43.9742L32.3723 45.0992C32.9816 45.4227 33.731 45.3084 34.2161 44.8179L40.1223 38.9117C41.1231 37.906 42.6758 37.7006 43.9036 38.4117L55.9661 45.4429C56.5948 45.8102 57.0172 46.4488 57.109 47.1712C57.2008 47.8935 56.9517 48.6175 56.4348 49.1304L51.1536 54.4117C49.9792 55.593 48.3818 56.2567 46.7161 56.2554H44.6223Z" fill="white"/>
</svg>
