<svg width="37" height="37" viewBox="0 0 37 37" fill="none" xmlns="http://www.w3.org/2000/svg">
<path d="M31.75 6.1499H4.75005C2.83755 6.1499 1.2063 7.7249 1.2063 9.69365V27.9187C1.2063 29.8312 2.7813 31.4624 4.75005 31.4624H31.75C33.6625 31.4624 35.2938 29.8874 35.2938 27.9187V9.6374C35.2938 7.7249 33.6625 6.1499 31.75 6.1499ZM31.75 8.68115C31.8063 8.68115 31.8625 8.68115 31.9188 8.68115L18.25 17.4562L4.5813 8.68115C4.63755 8.68115 4.6938 8.68115 4.75005 8.68115H31.75ZM31.75 28.8187H4.75005C4.18755 28.8187 3.73755 28.3687 3.73755 27.8062V11.1562L16.9 19.5937C17.2938 19.8749 17.7438 19.9874 18.1938 19.9874C18.6438 19.9874 19.0938 19.8749 19.4875 19.5937L32.65 11.1562V27.8624C32.7625 28.4249 32.3125 28.8187 31.75 28.8187Z" fill="#FFFFFF"/>
</svg>
