<svg width="37" height="40" viewBox="0 0 37 40" fill="none" xmlns="http://www.w3.org/2000/svg">
<path d="M14.5274 30.6464L11.3167 33.9859C10.4748 34.887 9.33297 35.3933 8.14234 35.3933C6.95171 35.3933 5.80984 34.887 4.96794 33.9859C4.12604 33.0848 3.65306 31.8626 3.65306 30.5882C3.65306 29.3138 4.12604 28.0916 4.96794 27.1904L13.2032 18.3563C14.0116 17.4883 15.1007 16.9861 16.2452 16.9536C17.3898 16.921 18.5023 17.3607 19.3525 18.1816L19.5702 18.3757C19.9142 18.7362 20.3778 18.9356 20.8592 18.9301C21.3405 18.9247 21.8001 18.7148 22.1369 18.3466C22.4737 17.9784 22.66 17.4821 22.6549 16.9669C22.6498 16.4517 22.4537 15.9597 22.1097 15.5993C22.0073 15.4576 21.8983 15.3215 21.7832 15.1915C20.2347 13.7496 18.2321 12.9915 16.181 13.0708C14.1298 13.1501 12.1835 14.0609 10.7363 15.6187L2.39214 24.4528C0.974283 26.1047 0.207464 28.279 0.251823 30.5217C0.296181 32.7643 1.14829 34.902 2.63019 36.4881C4.11209 38.0743 6.10921 38.9864 8.20446 39.0338C10.2997 39.0813 12.3311 38.2605 13.8744 36.7429L17.0125 33.4617C17.3224 33.0999 17.4927 32.6259 17.4892 32.1351C17.4858 31.6443 17.3088 31.1731 16.9939 30.8163C16.6789 30.4596 16.2495 30.2437 15.7919 30.2122C15.3343 30.1807 14.8825 30.3358 14.5274 30.6464ZM33.9185 2.99851C32.3925 1.37537 30.3286 0.464355 28.1773 0.464355C26.0261 0.464355 23.9621 1.37537 22.4362 2.99851L19.2981 6.27976C18.9882 6.64157 18.8179 7.11556 18.8214 7.60636C18.8248 8.09717 19.0018 8.56835 19.3168 8.92511C19.6317 9.28188 20.0611 9.49774 20.5188 9.52926C20.9764 9.56079 21.4281 9.40563 21.7832 9.09503L24.9213 5.75553C25.7632 4.8544 26.9051 4.34814 28.0957 4.34814C29.2863 4.34814 30.4282 4.8544 31.2701 5.75553C32.112 6.65667 32.585 7.87888 32.585 9.15328C32.585 10.4277 32.112 11.6499 31.2701 12.551L23.0348 21.3851C22.2265 22.2531 21.1374 22.7553 19.9928 22.7879C18.8482 22.8204 17.7358 22.3807 16.8855 21.5599L16.6679 21.3657C16.3239 21.0053 15.8602 20.8058 15.3789 20.8113C14.8975 20.8168 14.4379 21.0267 14.1011 21.3948C13.7644 21.763 13.5781 22.2593 13.5832 22.7745C13.5883 23.2898 13.7844 23.7817 14.1284 24.1422C14.2601 24.2864 14.3994 24.4225 14.5456 24.5499C16.0959 25.9875 18.0977 26.7428 20.1476 26.6635C22.1974 26.5843 24.1431 25.6764 25.5925 24.1227L33.8459 15.2886C35.372 13.6656 36.2362 11.4622 36.2498 9.15958C36.2634 6.85692 35.4253 4.64203 33.9185 2.99851Z" fill="#6B7280"/>
</svg>
