<svg width="76" height="96" viewBox="0 0 76 96" fill="none" xmlns="http://www.w3.org/2000/svg">
<path d="M38 42.2534C39.8789 42.2534 41.7156 41.6958 43.2779 40.651C44.8402 39.6062 46.0578 38.1212 46.7769 36.3838C47.4959 34.6464 47.684 32.7346 47.3175 30.8901C46.9509 29.0457 46.0461 27.3515 44.7175 26.0217C43.3889 24.692 41.6962 23.7864 39.8534 23.4195C38.0105 23.0526 36.1004 23.2409 34.3645 23.9606C32.6286 24.6802 31.1449 25.899 30.101 27.4626C29.0572 29.0262 28.5 30.8646 28.5 32.7451C28.5 35.2669 29.5009 37.6854 31.2825 39.4685C33.0641 41.2517 35.4804 42.2534 38 42.2534ZM34.6275 75.1047C35.0691 75.5503 35.5944 75.9039 36.1733 76.1453C36.7521 76.3867 37.3729 76.5109 38 76.5109C38.6271 76.5109 39.2479 76.3867 39.8267 76.1453C40.4056 75.9039 40.9309 75.5503 41.3725 75.1047L60.8 55.6126C65.3123 51.0987 68.3857 45.3469 69.6315 39.0846C70.8774 32.8223 70.2397 26.3308 67.799 20.4313C65.3584 14.5318 61.2245 9.48925 55.9203 5.94146C50.616 2.39366 44.3797 0.5 38 0.5C31.6203 0.5 25.384 2.39366 20.0797 5.94146C14.7755 9.48925 10.6416 14.5318 8.20096 20.4313C5.76034 26.3308 5.12262 32.8223 6.36846 39.0846C7.61429 45.3469 10.6877 51.0987 15.2 55.6126L34.6275 75.1047ZM15.3425 30.5582C15.667 27.1686 16.7438 23.8943 18.4942 20.9744C20.2446 18.0545 22.6245 15.5627 25.46 13.6809C29.185 11.233 33.5438 9.92877 38 9.92877C42.4562 9.92877 46.815 11.233 50.54 13.6809C53.3566 15.5562 55.7229 18.0329 57.469 20.9329C59.215 23.8328 60.2972 27.084 60.6379 30.4526C60.9785 33.8212 60.5691 37.2235 59.4391 40.4148C58.3091 43.6061 56.4865 46.5071 54.1025 48.9093L38 65.0258L21.8975 48.9093C19.5107 46.5304 17.6839 43.6489 16.55 40.4744C15.416 37.2999 15.0035 33.9124 15.3425 30.5582ZM71.25 85.9917H4.75C3.49022 85.9917 2.28204 86.4926 1.39124 87.3841C0.500446 88.2757 0 89.485 0 90.7458C0 92.0067 0.500446 93.216 1.39124 94.1075C2.28204 94.9991 3.49022 95.5 4.75 95.5H71.25C72.5098 95.5 73.718 94.9991 74.6088 94.1075C75.4996 93.216 76 92.0067 76 90.7458C76 89.485 75.4996 88.2757 74.6088 87.3841C73.718 86.4926 72.5098 85.9917 71.25 85.9917Z" fill="white"/>
</svg>
