<svg width="37" height="37" viewBox="0 0 37 37" fill="none" xmlns="http://www.w3.org/2000/svg">
<path d="M18.2502 16.5012C14.0315 16.5012 10.6565 13.1824 10.6565 9.13242C10.6565 5.08242 14.0315 1.76367 18.2502 1.76367C22.469 1.76367 25.844 5.08242 25.844 9.13242C25.844 13.1824 22.469 16.5012 18.2502 16.5012ZM18.2502 4.29492C15.4377 4.29492 13.1877 6.48867 13.1877 9.13242C13.1877 11.7762 15.4377 13.9699 18.2502 13.9699C21.0627 13.9699 23.3127 11.7762 23.3127 9.13242C23.3127 6.48867 21.0627 4.29492 18.2502 4.29492Z" fill="#6B7280"/>
<path d="M29.3315 35.7943H7.16904C6.04404 35.7943 5.14404 34.8943 5.14404 33.7693V28.7068C5.14404 23.1943 9.64404 18.6943 15.1565 18.6943H21.4003C26.9128 18.6943 31.4128 23.1943 31.4128 28.7068V33.7693C31.3565 34.8381 30.4565 35.7943 29.3315 35.7943ZM7.67529 33.2631H28.8815V28.7068C28.8815 24.6006 25.5065 21.2256 21.4003 21.2256H15.1003C10.994 21.2256 7.61904 24.6006 7.61904 28.7068V33.2631H7.67529Z" fill="#6B7280"/>
</svg>
