<svg width="58" height="44" viewBox="0 0 58 44" fill="none" xmlns="http://www.w3.org/2000/svg">
<path d="M51.9703 0.255371H6.0297C2.77558 0.255371 0 2.93093 0 6.27537V37.2354C0 40.4843 2.67987 43.2554 6.0297 43.2554H51.9703C55.2244 43.2554 58 40.5798 58 37.2354V6.17982C58 2.93093 55.2244 0.255371 51.9703 0.255371ZM51.9703 4.55537C52.066 4.55537 52.1617 4.55537 52.2574 4.55537L29 19.462L5.74257 4.55537C5.83828 4.55537 5.93399 4.55537 6.0297 4.55537H51.9703ZM51.9703 38.7643H6.0297C5.07261 38.7643 4.30693 37.9998 4.30693 37.0443V8.75982L26.703 23.0931C27.3729 23.5709 28.1386 23.762 28.9043 23.762C29.67 23.762 30.4356 23.5709 31.1056 23.0931L53.5016 8.75982V37.1398C53.6931 38.0954 52.9274 38.7643 51.9703 38.7643Z" fill="white"/>
</svg>
